<svg width="464" height="226" viewBox="0 0 464 226" fill="none" xmlns="http://www.w3.org/2000/svg">
<path fill-rule="evenodd" clip-rule="evenodd" d="M0 57.5V170.5L58.5 225.5H407L463.5 168.5V57.5L406.5 0H59L0 57.5Z" fill="#EFEFEF"/>
<path fill-rule="evenodd" clip-rule="evenodd" d="M7.17578 60.277V166.097L61.2968 219.831H403.622L457.824 165.696V60.276L405.642 5.66602H60.7768L7.17578 60.277Z" fill="#182939"/>
<path fill-rule="evenodd" clip-rule="evenodd" d="M12.5 61.5V163L64 214.5H400.5L452 162.5V64L399 11H63.5L12.5 61.5Z" fill="#62CEF2"/>
<path d="M64 214.5H400.5L452 162.5V158.489H12.5V163L64 214.5Z" fill="#0076BD"/>
<path fill-rule="evenodd" clip-rule="evenodd" d="M26 67V156L69.5 201.5H394.5L439 155V65.5L390.5 23.5H78L26 67Z" fill="#32C6E0"/>
<path fill-rule="evenodd" clip-rule="evenodd" d="M69.5 201.5H394.5L439 155V110.489H26V156L69.5 201.5Z" fill="#00A7D3"/>
<path fill-rule="evenodd" clip-rule="evenodd" d="M24.5 157.334L41.5 76.667L75.833 43H385.833L424.167 78.667L439 155L439.535 69.614L390.5 28L76.833 26.333L29.167 68.666L24.5 157.334Z" fill="#7EE4F0"/>
<path fill-rule="evenodd" clip-rule="evenodd" d="M63.834 12.333L70.168 25L27.834 65.333L14.168 63.333L25.501 70.666L25.168 155.999L30.834 73.666L75.168 30.666H389.501L432.517 72.317L439.005 154.942L440.501 70L450.501 63L433.501 64.667L394.501 25.667L399.501 12.334L386.501 24.667L78.501 23.667L63.834 12.333Z" fill="white"/>
<path fill-rule="evenodd" clip-rule="evenodd" d="M25.832 156L69.832 195.666H392.499L438.999 155L395.166 204.334H68.499L25.832 156Z" fill="#47CCF5"/>
</svg>
